<svg width="24" height="24" viewBox="0 0 24 24" fill="none" xmlns="http://www.w3.org/2000/svg">
<rect x="1.25" y="4" width="2.5" height="2.5" rx="0.5" fill="#A3A3A5"/>
<rect x="1.25" y="4" width="2.5" height="2.5" rx="0.5" fill="black" fill-opacity="0.2"/>
<rect x="1.25" y="4" width="2.5" height="2.5" rx="0.5" fill="black" fill-opacity="0.2"/>
<rect x="1.25" y="4" width="2.5" height="2.5" rx="0.5" fill="black" fill-opacity="0.2"/>
<rect x="1.25" y="4" width="2.5" height="2.5" rx="0.5" fill="black" fill-opacity="0.2"/>
<rect x="5.75" y="4" width="17" height="2.5" rx="0.5" fill="#A3A3A5"/>
<rect x="5.75" y="4" width="17" height="2.5" rx="0.5" fill="black" fill-opacity="0.2"/>
<rect x="5.75" y="4" width="17" height="2.5" rx="0.5" fill="black" fill-opacity="0.2"/>
<rect x="5.75" y="4" width="17" height="2.5" rx="0.5" fill="black" fill-opacity="0.2"/>
<rect x="5.75" y="4" width="17" height="2.5" rx="0.5" fill="black" fill-opacity="0.2"/>
<rect x="1.25" y="10.5" width="2.5" height="2.5" rx="0.5" fill="#A3A3A5"/>
<rect x="1.25" y="10.5" width="2.5" height="2.5" rx="0.5" fill="black" fill-opacity="0.2"/>
<rect x="1.25" y="10.5" width="2.5" height="2.5" rx="0.5" fill="black" fill-opacity="0.2"/>
<rect x="1.25" y="10.5" width="2.5" height="2.5" rx="0.5" fill="black" fill-opacity="0.2"/>
<rect x="1.25" y="10.5" width="2.5" height="2.5" rx="0.5" fill="black" fill-opacity="0.2"/>
<rect x="5.75" y="10.5" width="17" height="2.5" rx="0.5" fill="#A3A3A5"/>
<rect x="5.75" y="10.5" width="17" height="2.5" rx="0.5" fill="black" fill-opacity="0.2"/>
<rect x="5.75" y="10.5" width="17" height="2.5" rx="0.5" fill="black" fill-opacity="0.2"/>
<rect x="5.75" y="10.5" width="17" height="2.5" rx="0.5" fill="black" fill-opacity="0.2"/>
<rect x="5.75" y="10.5" width="17" height="2.5" rx="0.5" fill="black" fill-opacity="0.2"/>
<rect x="1.25" y="17" width="2.5" height="2.5" rx="0.5" fill="#A3A3A5"/>
<rect x="1.25" y="17" width="2.5" height="2.5" rx="0.5" fill="black" fill-opacity="0.2"/>
<rect x="1.25" y="17" width="2.5" height="2.5" rx="0.5" fill="black" fill-opacity="0.2"/>
<rect x="1.25" y="17" width="2.5" height="2.5" rx="0.5" fill="black" fill-opacity="0.2"/>
<rect x="1.25" y="17" width="2.5" height="2.5" rx="0.5" fill="black" fill-opacity="0.2"/>
<rect x="5.75" y="17" width="17" height="2.5" rx="0.5" fill="#A3A3A5"/>
<rect x="5.75" y="17" width="17" height="2.5" rx="0.5" fill="black" fill-opacity="0.2"/>
<rect x="5.75" y="17" width="17" height="2.5" rx="0.5" fill="black" fill-opacity="0.2"/>
<rect x="5.75" y="17" width="17" height="2.5" rx="0.5" fill="black" fill-opacity="0.2"/>
<rect x="5.75" y="17" width="17" height="2.5" rx="0.5" fill="black" fill-opacity="0.2"/>
</svg>
