<svg width="18" height="18" viewBox="0 0 18 18" fill="none" xmlns="http://www.w3.org/2000/svg">
<path d="M1.35059 0.530956L8.77051 7.96357L16.0635 0.659863L16.2402 0.483105L16.417 0.659863L16.7275 0.971386L16.9043 1.14814L16.7275 1.3249L9.43457 8.62861L16.8838 16.0905L17.0605 16.2673L16.8838 16.444L16.5732 16.7556L16.3965 16.9323L16.2197 16.7556L8.77051 9.29365L1.19434 16.8845L1.01758 17.0612L0.84082 16.8845L0.530273 16.5729L0.353516 16.3962L0.530273 16.2194L8.10645 8.62861L0.686523 1.196L0.509766 1.01924L0.686523 0.84248L0.99707 0.530956L1.17383 0.354198L1.35059 0.530956Z" fill="#05020F" stroke="#05020F" stroke-width="0.5"/>
</svg>
