<svg width="24" height="24" viewBox="0 0 24 24" fill="none" xmlns="http://www.w3.org/2000/svg">
<path d="M17.1333 20H6.21333C5.89154 20 5.58292 19.8751 5.35538 19.6528C5.12784 19.4306 5 19.1291 5 18.8147V5.77734" stroke="#747478" stroke-width="1.5" stroke-linecap="round" stroke-linejoin="round"/>
<path d="M19.0008 16.1215C19.0008 16.443 18.8697 16.7514 18.6363 16.9787C18.4029 17.206 18.0864 17.3337 17.7563 17.3337H9.04523C8.71518 17.3337 8.39865 17.206 8.16527 16.9787C7.9319 16.7514 7.80078 16.443 7.80078 16.1215V5.21215C7.80078 4.89067 7.9319 4.58235 8.16527 4.35503C8.39865 4.12771 8.71518 4 9.04523 4H15.3745C15.7042 4.00007 16.0206 4.12767 16.2539 4.35476L18.6366 6.67563C18.8697 6.90287 19.0007 7.21096 19.0008 7.53222V16.1215Z" stroke="#747478" stroke-width="1.5" stroke-linecap="round" stroke-linejoin="round"/>
</svg>
